<svg xmlns="http://www.w3.org/2000/svg" viewBox="0 0 512 512" fill="none">
  <defs>
    <linearGradient id="logoGrad" x1="0%" y1="0%" x2="100%" y2="100%">
      <stop offset="0%" style="stop-color:#3B82F6;stop-opacity:1" />
      <stop offset="100%" style="stop-color:#8B5CF6;stop-opacity:1" />
    </linearGradient>
  </defs>
  <path d="M100 80 L340 80 C373.3 80 400 106.7 400 140 L400 372 C400 405.3 373.3 432 340 432 L100 432 C66.7 432 40 405.3 40 372 L40 140 C40 106.7 66.7 80 100 80 Z" fill="url(#logoGrad)"/>
  <path d="M115 100 L325 100 C347.1 100 365 117.9 365 140 L365 357 C365 379.1 347.1 397 325 397 L115 397 C92.9 397 75 379.1 75 357 L75 140 C75 117.9 92.9 100 115 100 Z" fill="white"/>
  <path d="M155 248 L215 308 L345 178" stroke="url(#logoGrad)" stroke-width="32" stroke-linecap="round" stroke-linejoin="round" fill="none"/>
  <rect x="75" y="140" width="290" height="4" rx="2" fill="#E5E7EB"/>
</svg>